<?xml version="1.0" encoding="UTF-8"?>
<svg id="Capa_1" xmlns="http://www.w3.org/2000/svg" version="1.1" viewBox="0 0 270.51 102.49">
  <!-- Generator: Adobe Illustrator 29.4.0, SVG Export Plug-In . SVG Version: 2.1.0 Build 152)  -->
  <defs>
    <style>
      .st0 {
        fill: #1d1d1b;
      }
    </style>
  </defs>
  <path class="st0" d="M66.17,71.01l-5.58-11.43h-28.92l-5.58,11.43h-7.95l23.84-48.79h8.78l23.7,48.79h-8.29ZM42.33,37.7l-7.11,14.64h21.81l-7.25-14.91c-.65-1.35-1.28-2.64-1.88-3.87-.6-1.23-1.21-2.57-1.81-4.01-.6,1.49-1.22,2.88-1.85,4.18-.63,1.3-1.27,2.63-1.92,3.97Z"/>
  <path class="st0" d="M115.92,19.44v51.57h-7.18v-6.34c-.98,1.21-2.35,2.35-4.11,3.42-1.77,1.07-3.79,1.94-6.06,2.61-2.28.67-4.67,1.01-7.18,1.01-4.41,0-8.26-.81-11.53-2.44-3.28-1.63-5.8-3.88-7.56-6.76-1.77-2.88-2.65-6.16-2.65-9.83s.94-7,2.82-9.86c1.88-2.86,4.48-5.1,7.81-6.73,3.32-1.63,7.17-2.44,11.53-2.44,3.76,0,7.14.59,10.14,1.78,3,1.19,5.26,2.59,6.8,4.22v-20.21h7.18ZM92.99,65.09c3.21,0,6-.55,8.4-1.64,2.39-1.09,4.26-2.57,5.61-4.43,1.35-1.86,2.02-3.97,2.02-6.34s-.67-4.48-2.02-6.34c-1.35-1.86-3.22-3.32-5.61-4.39-2.39-1.07-5.19-1.6-8.4-1.6s-5.88.53-8.29,1.6c-2.42,1.07-4.31,2.53-5.68,4.39-1.37,1.86-2.06,3.97-2.06,6.34s.68,4.49,2.06,6.34c1.37,1.86,3.26,3.33,5.68,4.43,2.42,1.09,5.18,1.64,8.29,1.64Z"/>
  <path class="st0" d="M125.75,52.68c0,2.42.67,4.57,2.02,6.45,1.35,1.88,3.17,3.37,5.47,4.46,2.3,1.09,4.87,1.64,7.7,1.64,3.76,0,6.98-.56,9.65-1.67,2.67-1.12,4.98-2.25,6.93-3.42l3.9,5.58c-2.6,1.58-5.58,2.97-8.92,4.18-3.35,1.21-7.23,1.81-11.64,1.81s-8.13-.84-11.57-2.51c-3.44-1.67-6.15-3.95-8.12-6.83-1.98-2.88-2.96-6.11-2.96-9.69s.99-6.86,2.96-9.72c1.97-2.86,4.68-5.12,8.12-6.8,3.44-1.67,7.29-2.51,11.57-2.51s8.25.63,11.92,1.88c3.67,1.25,6.55,3,8.64,5.23l-4.04,5.85c-1.25-1.21-2.8-2.3-4.63-3.28-1.84-.98-3.78-1.75-5.82-2.33-2.04-.58-4.07-.87-6.06-.87-3.02,0-5.67.55-7.94,1.64-2.28,1.09-4.04,2.58-5.3,4.46-1.25,1.88-1.88,4.03-1.88,6.45Z"/>
  <path class="st0" d="M206.02,34.42v36.59h-7.18v-6.34c-.98,1.21-2.35,2.35-4.11,3.42-1.77,1.07-3.79,1.94-6.06,2.61-2.28.67-4.67,1.01-7.18,1.01-4.41,0-8.26-.81-11.53-2.44-3.28-1.63-5.8-3.88-7.56-6.76-1.77-2.88-2.65-6.16-2.65-9.83s.94-7,2.82-9.86c1.88-2.86,4.48-5.1,7.81-6.73,3.32-1.63,7.17-2.44,11.53-2.44,3.76,0,7.14.59,10.14,1.78,3,1.19,5.26,2.59,6.8,4.22v-5.23h7.18ZM183.09,65.09c3.21,0,6-.55,8.4-1.64,2.39-1.09,4.26-2.57,5.61-4.43,1.35-1.86,2.02-3.97,2.02-6.34s-.67-4.48-2.02-6.34c-1.35-1.86-3.22-3.32-5.61-4.39-2.39-1.07-5.19-1.6-8.4-1.6s-5.88.53-8.29,1.6c-2.42,1.07-4.31,2.53-5.68,4.39-1.37,1.86-2.06,3.97-2.06,6.34s.68,4.49,2.06,6.34c1.37,1.86,3.26,3.33,5.68,4.43,2.42,1.09,5.18,1.64,8.29,1.64Z"/>
  <path class="st0" d="M232.57,33.8c4.41,0,8.27.8,11.57,2.41,3.3,1.6,5.85,3.82,7.67,6.66,1.81,2.83,2.72,6.11,2.72,9.83s-.92,6.93-2.75,9.79c-1.84,2.86-4.38,5.1-7.63,6.73-3.25,1.63-7.04,2.44-11.36,2.44-3.76,0-7.14-.63-10.14-1.88-3-1.25-5.26-2.65-6.8-4.18v20.77h-7.25v-51.99h7.25v5.85c.88-1.07,2.16-2.09,3.83-3.07,1.67-.98,3.62-1.78,5.85-2.4,2.23-.63,4.58-.94,7.04-.94ZM231.59,40.42c-3.16,0-5.95.53-8.36,1.6-2.42,1.07-4.31,2.52-5.68,4.36-1.37,1.84-2.06,3.94-2.06,6.31s.68,4.41,2.06,6.27c1.37,1.86,3.26,3.33,5.68,4.43,2.42,1.09,5.2,1.64,8.36,1.64s5.94-.55,8.33-1.64c2.39-1.09,4.27-2.57,5.65-4.43,1.37-1.86,2.06-3.95,2.06-6.27s-.69-4.47-2.06-6.31c-1.37-1.83-3.25-3.29-5.65-4.36-2.39-1.07-5.17-1.6-8.33-1.6Z"/>
</svg>