<svg xmlns="http://www.w3.org/2000/svg" xml:space="preserve" id="Layer_1" x="0" y="0" style=".3 134.3" viewBox="0 0 543.3 134.3"><style>.st0{fill:#3d338c}.st1{fill:#ee2d2a}</style><path d="M38.7 0c4-.1 7.9.3 11.8 1.2 2.7.7 5.3 1.5 7.9 2.5L54 23.5c-1.9-.8-3.9-1.4-6-1.7-2.2-.3-4.5-.5-6.7-.5-2.6-.1-5.3.4-7.7 1.3-1.9.7-3.6 1.9-4.9 3.5-1.2 1.5-2.1 3.3-2.5 5.3-.5 2.2-.8 4.4-.8 6.6v4.4h31.2v21H25.3v68.2H0v-94c0-11.5 3.2-20.7 9.8-27.5S25.9 0 38.7 0m68.2 133.3c-7.3-.1-13.3-.9-17.9-2.4-4.1-1.2-7.8-3.3-10.9-6.2-2.7-2.7-4.5-6-5.4-9.7-1-4.2-1.5-8.5-1.4-12.8V4.1L96.5 0v97.2c0 2 .2 4.1.5 6.1.3 1.7 1 3.2 2 4.6 1.1 1.4 2.5 2.4 4.2 3.1 2.3.9 4.8 1.4 7.3 1.5ZM202.8 86.9c.1 6.5-1 13.1-3.1 19.3-1.9 5.5-4.9 10.6-8.8 14.9-3.9 4.1-8.6 7.4-13.8 9.6C165.5 135.2 152.7 135.2 141.1 130.7c-5.2-2.2-10-5.4-13.8-9.6-4-4.3-7-9.4-9-14.9-2.2-6.2-3.3-12.7-3.2-19.3-.1-6.5 1.1-13 3.4-19.1 2-5.5 5.1-10.5 9.2-14.8 3.9-4.1 8.7-7.3 13.9-9.5C147 41.2 153 40 159 40.1c6.1-.1 12.1 1.1 17.7 3.4 5.2 2.2 9.9 5.4 13.8 9.5 4 4.3 7 9.3 9 14.8 2.3 6.1 3.4 12.5 3.3 19.1m-25.8 0c0-7.8-1.6-13.9-4.7-18.4s-7.6-6.7-13.3-6.7c-5.8 0-10.2 2.2-13.4 6.7s-4.8 10.6-4.8 18.4q0 11.7 4.8 18.6c3 4.5 8 7.1 13.4 6.9 5.3.2 10.4-2.4 13.3-6.9 3.2-4.6 4.7-10.8 4.7-18.6" class="st0"/><path d="m484.1 20.2 25.3-4.1v26.3h30.4v21h-30.4v31.4c0 5.3.9 9.6 2.8 12.7s5.6 4.7 11.3 4.8c2.8 0 5.6-.3 8.4-.8 2.7-.5 5.3-1.2 7.9-2.1l3.6 19.7c-3.3 1.3-6.7 2.4-10.2 3.2-4.5 1-9.1 1.5-13.8 1.4-6.9 0-12.6-.9-17.1-2.8-4.2-1.6-8-4.3-10.9-7.8-2.8-3.5-4.8-7.7-5.7-12.1-1.1-5.2-1.7-10.5-1.6-15.8ZM355.6 27.4c5.2 4.6 13 4.6 18.2 0 2.6-2.4 4-5.9 3.9-9.4.2-3.6-1.2-7-3.9-9.4-5.2-4.6-13-4.6-18.2 0-2.6 2.3-3.9 5.4-3.9 9.4s1.3 7.1 3.9 9.4" class="st1"/><linearGradient id="SVGID_1_" x1="232.83" x2="493.063" y1="364.295" y2="364.295" gradientTransform="matrix(1 0 0 -1 -21.32 451.6298)" gradientUnits="userSpaceOnUse" patternTransform="matrix(1,0,0,-1,-21.32,451.63)"><stop offset="0" style="stop-color:#3d338c"/><stop offset=".06" style="stop-color:#5c327b"/><stop offset=".16" style="stop-color:#833166"/><stop offset=".26" style="stop-color:#a43053"/><stop offset=".36" style="stop-color:#bf2f44"/><stop offset=".48" style="stop-color:#d42e38"/><stop offset=".61" style="stop-color:#e32d30"/><stop offset=".76" style="stop-color:#eb2d2b"/><stop offset="1" style="stop-color:#ee2d2a"/></linearGradient><path d="M469.9 64.6c-1.1-4.7-3.3-9.1-6.3-12.9-3.2-3.8-7.3-6.7-12-8.4q-7.5-3-18.9-3c-7.2 0-14.3.5-21.4 1.6-5.6.8-11.2 2-16.6 3.5V110q-2.85 1.35-6 1.2c-9.8 0-12.2-6.6-12.2-10V51.4c0-5-4.2-9.2-11.6-9.2s-11.8 4.2-11.8 9.2v50.5c-.3 3.5-3 9.4-11.7 9.4-9.8 0-12.2-6.6-12.2-10V51.4c0-5-4.2-9.2-11.6-9.2h-.3c-7.4 0-11.6 4.2-11.6 9.2v49.9c0 3.3-2.4 10-12.2 10-9.2 0-11.7-6.6-11.7-10V51.4c0-4.8-3.2-9.2-12-9.2-8.4 0-11.7 4.2-11.7 9.2v49.9c0 3.5-2.5 9.8-12 9.8s-11.7-6.3-11.7-9.8V51.4c0-5-3.7-9.2-11.7-9.2-7.9 0-11.5 4.2-11.5 9.2v49.9c0 6.3 5.9 33 33.7 33 16.9 0 24.7-9.3 24.7-9.3 6.7 6 15.3 9.3 24.2 9.3 10.8 0 18.3-3.1 23.5-7.5 5.2 4.4 12.7 7.5 23.5 7.5 8.3 0 16.4-2.9 22.9-8.1 5.2 4.7 13 8.1 24.3 8.1 4.7 0 9.3-.9 13.7-2.7h18V62.7q2.4-.3 5.4-.6c3-.3 4-.3 5.8-.3q8.85 0 12 5.1c2.1 3.4 3.2 9.2 3.2 17.3v47.3h25.3V81.3c.4-5.6-.2-11.2-1.5-16.7" style="fill:url(#SVGID_1_)"/></svg>